HIERARCHY
ROOT Hips
{
	OFFSET 0.00000 0.00000 0.00000
	CHANNELS 6 Xposition Yposition Zposition Zrotation Yrotation Xrotation 
	JOINT LHipJoint
	{
		OFFSET 0 0 0
		CHANNELS 3 Zrotation Yrotation Xrotation
		JOINT LeftUpLeg
		{
			OFFSET 1.36306 -1.79463 0.83929
			CHANNELS 3 Zrotation Yrotation Xrotation
			JOINT LeftLeg
			{
				OFFSET 2.44811 -6.72613 0.00000
				CHANNELS 3 Zrotation Yrotation Xrotation
				JOINT LeftFoot
				{
					OFFSET 2.56220 -7.03959 0.00000
					CHANNELS 3 Zrotation Yrotation Xrotation
					JOINT LeftToeBase
					{
						OFFSET 0.15764 -0.43311 2.32255
						CHANNELS 3 Zrotation Yrotation Xrotation
						End Site
						{
							OFFSET 0.00000 -0.00000 1.18966
						}
					}
				}
			}
		}
	}
	JOINT RHipJoint
	{
		OFFSET 0 0 0
		CHANNELS 3 Zrotation Yrotation Xrotation
		JOINT RightUpLeg
		{
			OFFSET -1.30552 -1.79463 0.83929
			CHANNELS 3 Zrotation Yrotation Xrotation
			JOINT RightLeg
			{
				OFFSET -2.54253 -6.98555 0.00000
				CHANNELS 3 Zrotation Yrotation Xrotation
				JOINT RightFoot
				{
					OFFSET -2.56826 -7.05623 0.00000
					CHANNELS 3 Zrotation Yrotation Xrotation
					JOINT RightToeBase
					{
						OFFSET -0.16473 -0.45259 2.36315
						CHANNELS 3 Zrotation Yrotation Xrotation
						End Site
						{
							OFFSET -0.00000 -0.00000 1.21082
						}
					}
				}
			}
		}
	}
	JOINT LowerBack
	{
		OFFSET 0 0 0
		CHANNELS 3 Zrotation Yrotation Xrotation
		JOINT Spine
		{
			OFFSET 0.02827 2.03559 -0.19338
			CHANNELS 3 Zrotation Yrotation Xrotation
			JOINT Spine1
			{
				OFFSET 0.05672 2.04885 -0.04275
				CHANNELS 3 Zrotation Yrotation Xrotation
				JOINT Neck
				{
					OFFSET 0 0 0
					CHANNELS 3 Zrotation Yrotation Xrotation
					JOINT Neck1
					{
						OFFSET -0.05417 1.74624 0.17202
						CHANNELS 3 Zrotation Yrotation Xrotation
						JOINT Head
						{
							OFFSET 0.10407 1.76136 -0.12397
							CHANNELS 3 Zrotation Yrotation Xrotation
							End Site
							{
								OFFSET 0.03720 1.77044 -0.06241
							}
						}
					}
				}
				JOINT LeftShoulder
				{
					OFFSET 0 0 0
					CHANNELS 3 Zrotation Yrotation Xrotation
					JOINT LeftArm
					{
						OFFSET 3.36241 1.20089 -0.31121
						CHANNELS 3 Zrotation Yrotation Xrotation
						JOINT LeftForeArm
						{
							OFFSET 4.98300 -0.00000 -0.00000
							CHANNELS 3 Zrotation Yrotation Xrotation
							JOINT LeftHand
							{
								OFFSET 3.48356 -0.00000 -0.00000
								CHANNELS 3 Zrotation Yrotation Xrotation
								JOINT LeftFingerBase
								{
									OFFSET 0 0 0
									CHANNELS 3 Zrotation Yrotation Xrotation
									JOINT LeftHandIndex1
									{
										OFFSET 0.71526 -0.00000 -0.00000
										CHANNELS 3 Zrotation Yrotation Xrotation
										End Site
										{
											OFFSET 0.57666 -0.00000 -0.00000
										}
									}
								}
								JOINT LThumb
								{
									OFFSET 0 0 0
									CHANNELS 3 Zrotation Yrotation Xrotation
									End Site
									{
										OFFSET 0.58547 -0.00000 0.58547
									}
								}
							}
						}
					}
				}
				JOINT RightShoulder
				{
					OFFSET 0 0 0
					CHANNELS 3 Zrotation Yrotation Xrotation
					JOINT RightArm
					{
						OFFSET -3.13660 1.37405 -0.40465
						CHANNELS 3 Zrotation Yrotation Xrotation
						JOINT RightForeArm
						{
							OFFSET -5.24190 -0.00000 -0.00000
							CHANNELS 3 Zrotation Yrotation Xrotation
							JOINT RightHand
							{
								OFFSET -3.44417 -0.00000 -0.00000
								CHANNELS 3 Zrotation Yrotation Xrotation
								JOINT RightFingerBase
								{
									OFFSET 0 0 0
									CHANNELS 3 Zrotation Yrotation Xrotation
									JOINT RightHandIndex1
									{
										OFFSET -0.62253 -0.00000 -0.00000
										CHANNELS 3 Zrotation Yrotation Xrotation
										End Site
										{
											OFFSET -0.50190 -0.00000 -0.00000
										}
									}
								}
								JOINT RThumb
								{
									OFFSET 0 0 0
									CHANNELS 3 Zrotation Yrotation Xrotation
									End Site
									{
										OFFSET -0.50956 -0.00000 0.50956
									}
								}
							}
						}
					}
				}
			}
		}
	}
}
MOTION
Frames: 11
Frame Time: 0.00722022
0.00 0.00 0.00 0 0 0 0 0 0 -21 0 0 0 0 0 0 0 0 0 0 0 0 0 0 21 0 0 0 0 0 0 0 0 0 0 0 0 0 0 0 0 0 0 0 0 0 0 -16 0 0 21 0 0 11 0 0 0 -8 0 0 0 0 0 0 0 0 0 0 0 0 0 0 0 0 0 0 0 0 8 0 0 0 0 0 0 0 0 0 0 0 0 0 0 0 0 0
0.00 0.00 0.00 -50.0391 -84.9661 57.7397 0.0000 0.0000 0.0000 -14.8233 4.5480 10.3820 1.0694 6.5741 18.4595 0.1553 -8.7447 -8.7407 0.0233 -0.9846 -2.7064 0.0000 0.0000 0.0000 23.3222 12.0491 -34.1715 -2.1817 -9.2347 26.5323 0.3903 -10.9976 -3.7067 -0.7105 -5.3869 15.0155 -3.2344 -1.4577 11.2771 2.4765 -2.3777 4.4043 4.6964 -1.3085 -1.4765 -8.3167 -7.4739 -2.8504 4.2240 -9.8718 6.6173 2.4350 -4.9873 3.3725 0.0000 -0.0000 0.0000 -84.6441 -7.4820 24.5093 22.9076 -33.9876 -7.0866 -0.0000 0.0000 -4.9737 19.1526 -4.9457 -1.7151 -7.1250 0.0000 -0.0000 -5.6229 24.7459 2.7655 0.0000 -0.0000 0.0000 85.0465 -1.0153 15.8180 -12.9819 21.2607 -2.4467 0.0000 -0.0000 -6.8869 -14.7416 -22.7290 5.8049 7.1250 -0.0000 -0.0000 14.7105 -52.8003 -2.8734
0.00 0.00 0.00 -49.3697 -84.2290 57.3240 0.0000 0.0000 0.0000 -13.1826 1.3874 3.6771 3.3020 11.1685 32.8504 -0.1211 -6.1614 2.4197 0.0000 0.0037 0.0102 0.0000 0.0000 0.0000 25.6416 8.2469 -31.5169 -2.1301 -9.1320 26.2090 0.1416 -7.2803 -5.8076 -1.3210 -7.2793 20.5454 -1.8510 -1.3711 11.6558 1.8537 -2.1158 4.0690 3.2523 -1.1365 -2.1398 -9.0096 -8.5088 -1.8092 4.5868 -11.3025 5.4953 2.6544 -5.7021 2.9723 0.0000 0.0000 0.0000 -83.7000 -6.3372 24.8373 21.8487 -32.8056 -6.5037 -0.0000 0.0000 -2.1272 14.3505 -5.6343 -1.4388 -7.1250 0.0000 -0.0000 -9.1653 24.1715 4.6662 0.0000 0.0000 0.0000 85.4600 -0.4354 11.4901 -11.3283 18.7898 -1.8803 0.0000 -0.0000 -4.1572 -14.8851 -22.7760 5.8750 7.1250 -0.0000 -0.0000 14.5905 -52.8719 -2.8750
0.00 0.00 0.00 -67.1266 -80.6885 73.6684 0.0000 0.0000 0.0000 -6.5890 -1.2483 -4.0457 7.2438 15.5338 49.7903 0.4529 -5.2096 15.6933 0.0961 1.9993 5.5036 0.0000 0.0000 0.0000 32.2322 5.2146 -24.7056 -1.5026 -7.7424 21.9345 0.0900 -6.1276 -5.4886 -0.8866 -6.0021 16.7904 1.3101 -0.8365 12.1560 2.4436 -1.0767 4.4479 1.9531 -0.6270 -2.1332 -10.0442 -9.6571 -0.7285 5.8283 -12.9132 3.6518 3.2473 -6.4906 2.4618 0.0000 0.0000 0.0000 -83.1432 -5.2881 23.9149 21.7491 -32.6923 -6.4498 -0.0000 0.0000 -1.1510 11.8090 -5.7411 -1.1981 -7.1250 0.0000 -0.0000 -11.0318 24.1236 5.6608 0.0000 0.0000 0.0000 84.1746 -0.3771 14.9499 -12.4558 20.4847 -2.2593 0.0000 -0.0000 -6.2320 -12.7293 -26.6001 5.7757 7.1250 -0.0000 -0.0000 18.7566 -56.1548 -5.2625
0.00 0.00 0.00 -73.6522 -77.2097 77.3068 0.0000 0.0000 0.0000 1.1212 -6.7222 -15.3258 12.5061 18.5965 67.5844 -0.2438 -9.8547 8.5252 0.2420 3.1659 8.7411 0.0000 0.0000 0.0000 37.4562 1.0256 -14.4997 -1.2721 -7.1484 20.1558 -0.1504 -4.5197 -10.3821 -0.7239 -5.4365 15.1577 3.6801 -0.6813 12.2785 2.2961 -0.5930 4.3008 0.4031 -0.3766 -2.3822 -10.8068 -11.0538 0.2471 6.7925 -14.8689 2.5481 3.6670 -7.4684 2.2473 -0.0000 0.0000 0.0000 -82.9884 -1.1276 20.3483 22.3909 -33.4160 -6.7999 -0.0000 0.0000 -4.8014 21.0635 -3.9786 -1.5307 -7.1250 0.0000 -0.0000 -4.2078 25.7148 1.9704 -0.0000 0.0000 0.0000 80.9827 1.9357 18.1250 -16.7929 26.5839 -3.9942 0.0000 -0.0000 -8.3980 -14.3717 -23.1068 5.7422 7.1250 -0.0000 -0.0000 15.2490 -53.1044 -3.0974
0.00 0.00 0.00 -79.9993 -76.3712 82.4115 0.0000 0.0000 0.0000 6.7248 -7.7793 -28.9944 8.7111 16.6182 55.0855 0.0760 -8.0406 -7.0932 0.0451 1.3700 3.7674 0.0000 0.0000 0.0000 38.3396 -0.5406 -5.9271 -1.7633 -8.3546 23.7963 -1.0549 -2.9593 -20.6788 -0.4648 -4.3730 12.1285 4.9822 0.4767 11.1876 1.3194 1.0930 3.2973 -1.5741 0.4753 -2.7504 -14.8837 -12.5671 2.6277 9.9495 -17.2698 1.4901 4.7790 -8.7037 2.1625 0.0000 0.0000 0.0000 -83.9365 -0.2770 11.7818 17.8640 -27.9827 -4.4852 -0.0000 0.0000 -1.6217 16.7951 -4.2426 -1.2791 -7.1250 0.0000 -0.0000 -7.4154 25.5420 3.5213 0.0000 0.0000 0.0000 78.1369 4.1054 19.9560 -25.7093 36.9203 -8.7125 0.0000 -0.0000 -17.9341 -20.6433 -24.4007 8.8463 7.1250 -0.0000 -0.0000 9.4864 -55.5906 -2.4818
0.00 0.00 0.00 -77.7286 -76.2191 80.4244 0.0000 0.0000 0.0000 7.4940 -8.7747 -31.3755 4.5577 12.8677 38.8753 0.2048 -3.5927 -8.0630 0.2708 3.3475 9.2478 0.0000 0.0000 0.0000 38.1491 -1.1139 -1.0406 -1.4669 -7.6541 21.6684 -1.3294 -3.7847 -23.4360 -0.5954 -4.9401 13.7377 5.6168 0.6384 10.9224 1.0095 1.3580 3.2332 -2.2826 0.6122 -2.6294 -14.6698 -13.2112 2.9495 10.1984 -18.2285 2.2965 4.7361 -9.1946 2.4741 -0.0000 0.0000 0.0000 -84.2975 -0.3672 11.0210 16.8924 -26.7157 -4.0389 -0.0000 0.0000 -2.6846 18.2069 -3.9904 -1.3112 -7.1250 0.0000 -0.0000 -6.3637 25.7736 2.9809 -0.0000 0.0000 0.0000 76.6383 5.6929 22.4395 -27.0108 38.1895 -9.5058 0.0000 -0.0000 -18.0177 -20.2692 -24.0816 8.5693 7.1250 -0.0000 -0.0000 9.7370 -55.1903 -2.4533
0.00 0.00 0.00 -103.3080 -79.8793 104.9040 0.0000 0.0000 0.0000 -0.9934 -4.2623 -25.9526 3.1502 10.9343 32.0585 -0.0494 -7.7463 -4.2828 0.0315 1.1450 3.1479 0.0000 0.0000 0.0000 31.8680 2.3311 4.1127 -5.0030 -13.3872 40.8357 0.9922 -18.8141 -15.0211 -0.0003 -0.1038 0.2851 3.4996 1.7917 10.8694 -0.8063 2.5292 4.4089 -3.0964 1.2285 -1.2951 -15.8001 -13.2007 5.1937 10.3433 -19.1519 9.4558 4.7735 -9.8142 4.5190 -0.0000 0.0000 0.0000 -86.1281 1.0563 0.4084 13.2406 -21.6388 -2.5413 -0.0000 -0.0000 2.9808 16.2986 -4.1704 -1.2181 -7.1250 0.0000 -0.0000 -7.7920 25.6269 3.6876 -0.0000 0.0000 0.0000 79.5258 1.4798 30.6600 -29.7478 40.6762 -11.2449 0.0000 -0.0000 -13.5648 -20.7492 -24.1697 8.8173 7.1250 -0.0000 -0.0000 9.2765 -55.3763 -2.3778
0.00 0.00 0.00 -114.0090 -82.2498 115.2630 0.0000 0.0000 0.0000 -6.0538 -2.0831 -19.7363 2.4107 9.6737 27.9264 0.0199 -7.3526 -5.5918 0.0387 1.2701 3.4922 0.0000 0.0000 0.0000 27.6381 1.4128 -6.4841 -9.3573 -17.0322 57.3177 2.0988 -24.6144 -9.6109 -2.0188 -8.9050 25.4987 0.5782 1.2039 11.0478 -1.2384 1.4339 4.5793 -1.7773 0.6505 -1.3728 -16.4506 -12.4692 5.2010 11.0303 -18.5060 11.4096 5.0871 -9.5388 5.1548 -0.0000 0.0000 0.0000 -84.6428 1.5698 2.6587 12.4137 -20.4222 -2.2446 -0.0000 -0.0000 4.4703 12.8618 -3.0330 -0.6922 -7.1250 0.0000 -0.0000 -10.4596 26.8319 4.6854 -0.0000 0.0000 0.0000 80.6047 -0.4301 33.9065 -28.8205 39.8607 -10.6454 0.0000 -0.0000 -12.8848 -9.2912 -19.7544 3.1649 7.1250 -0.0000 -0.0000 18.6011 -49.0498 -1.9182
0.00 0.00 0.00 -196.1280 -78.6473 200.9490 0.0000 0.0000 0.0000 -18.8193 12.2594 -3.2310 1.5015 7.7398 21.9264 0.5075 -14.1559 -15.0879 0.0363 1.2290 3.3790 0.0000 0.0000 0.0000 22.7388 6.3432 -35.0936 -1.6307 -8.0502 22.8668 0.1881 -19.4720 -26.0134 -0.4299 -4.2077 11.6618 -8.3285 -1.0494 9.1627 -1.8601 -2.3186 3.6429 2.9645 -1.2858 -1.0852 -12.7614 -12.8338 3.8910 8.7445 -18.7943 13.1196 3.7443 -9.5971 5.3669 -0.0000 0.0000 0.0000 -72.4720 -4.9381 8.4176 23.2375 -34.3475 -7.2719 -0.0000 0.0000 -9.8496 23.6936 -3.1722 -1.3911 -7.1250 0.0000 -0.0000 -2.2206 26.5150 0.9964 -0.0000 0.0000 0.0000 83.2892 -8.9278 15.8840 -24.0287 35.1946 -7.7231 0.0000 -0.0000 -10.6062 -21.9166 -21.2009 8.2784 7.1250 -0.0000 -0.0000 6.9655 -52.5377 -1.2973
0.00 0.00 0.00 -168.7580 -54.2853 170.6270 0.0000 0.0000 0.0000 -0.1060 -0.8567 -21.4754 11.7915 18.3011 65.3263 -0.0670 -7.1568 -3.2447 0.5254 4.6451 12.8990 0.0000 0.0000 0.0000 38.2817 -1.6491 -4.8203 -1.7969 -8.4297 24.0269 -0.8451 -2.0523 -18.2231 -0.9092 -6.0761 17.0054 4.5403 0.7120 7.7413 1.8100 1.2302 2.0818 -0.7934 0.5494 -2.1250 -14.1612 -13.8777 5.9777 10.1760 -20.9888 12.4642 4.3055 -10.8216 5.3677 -0.0000 -0.0000 0.0000 -81.1118 6.4966 1.4689 18.5108 -28.8062 -4.7928 -0.0000 0.0000 -2.6867 14.4859 -6.0588 -1.5620 -7.1250 0.0000 -0.0000 -9.0429 23.7354 4.6946 -0.0000 -0.0000 0.0000 47.9705 12.5116 -9.3243 -72.0274 58.7436 -44.5009 0.0000 0.0000 4.3130 -46.5259 -14.5643 14.8546 7.1250 -0.0000 -0.0000 -19.0913 -49.6804 2.2771
